<?xml version="1.0" encoding="UTF-8" standalone="no"?><!DOCTYPE svg PUBLIC "-//W3C//DTD SVG 1.1//EN" "http://www.w3.org/Graphics/SVG/1.1/DTD/svg11.dtd"><svg width="100%" height="100%" viewBox="0 0 306 153" version="1.1" xmlns="http://www.w3.org/2000/svg" xmlns:xlink="http://www.w3.org/1999/xlink" xml:space="preserve" xmlns:serif="http://www.serif.com/" style="fill-rule:evenodd;clip-rule:evenodd;stroke-linejoin:round;stroke-miterlimit:2;"><g><path d="M-0,126.468c5.156,-0.132 9.108,-1.69 11.854,-4.673c2.874,-3.122 4.311,-7.515 4.311,-13.18l0,-108.615l23.932,0l0,113.889c0,9.596 -1.965,17.226 -5.896,22.891c-3.931,5.665 -8.787,9.625 -14.567,11.88c-5.781,2.254 -11.793,3.381 -18.036,3.381c-0.537,0 -1.069,-0.006 -1.598,-0.019l-0,-25.554Z" style="fill:#0100cc;fill-rule:nonzero;"/><path d="M85.914,0c19.423,0 34.51,4.249 45.262,12.746c10.752,8.498 16.128,22.978 16.128,43.442c0,12.486 -2.832,22.949 -8.497,31.389c-5.665,8.44 -13.209,14.683 -22.632,18.729c-9.422,4.047 -19.798,6.07 -31.128,6.07l-36.592,-0l0,-112.376l37.459,0Zm-5.563,91.219c9.895,-0 17.8,-0.954 23.714,-2.862c5.913,-1.907 10.378,-5.405 13.395,-10.492c3.017,-5.087 4.525,-12.312 4.525,-21.677c-0,-8.671 -1.358,-15.55 -4.073,-20.637c-2.715,-5.087 -6.727,-8.758 -12.037,-11.012c-5.311,-2.255 -12.008,-3.382 -20.094,-3.382l-13.394,0l-0,70.062l7.964,-0Z" style="fill:#0366fe;fill-rule:nonzero;"/><rect x="154.386" y="0.358" width="24.616" height="112.018" style="fill:#15d1ff;fill-rule:nonzero;"/><path d="M278.239,112.376l-0,-112.018l-23.37,-0l0,45.337l-43.155,-0l-0,-45.337l-23.526,-0l0,112.018l23.526,-0l-0,-46.895l43.155,-0l0,46.895l23.37,-0Z" style="fill:#15d1ff;fill-rule:nonzero;"/><rect x="286.71" y="92.901" width="18.54" height="19.475" style="fill:#ffbd59;fill-rule:nonzero;"/></g></svg>